<svg fill="#484848" xmlns="http://www.w3.org/2000/svg"  viewBox="0 0 16 16" width="32px" height="32px"><path d="M 4.1542969 1.9960938 C 3.1205025 1.9960938 2.2840825 2.3080582 1.75 2.9296875 C 1.2159175 3.5513168 1.015625 4.4042907 1.015625 5.3925781 L 1.015625 10.898438 C 1.015625 12.661988 2.357984 14.005859 4.1542969 14.005859 L 7 14.005859 L 7 1.9960938 L 4.1542969 1.9960938 z M 8 1.9960938 L 8 14.005859 L 10.855469 14.005859 C 12.657762 14.005859 14.007813 12.66223 14.007812 10.898438 L 14.007812 5.3945312 C 14.007812 4.405972 13.803906 3.5511871 13.267578 2.9296875 C 12.73125 2.3081879 11.893316 1.9960938 10.855469 1.9960938 L 8 1.9960938 z M 4.1542969 2.9960938 L 6 2.9960938 L 6 13.005859 L 4.1542969 13.005859 C 2.8166098 13.005859 2.015625 12.194885 2.015625 10.898438 L 2.015625 5.3925781 C 2.015625 4.5418655 2.192395 3.9471989 2.5078125 3.5800781 C 2.82323 3.2129574 3.3080912 2.9960938 4.1542969 2.9960938 z M 9 2.9960938 L 10.855469 2.9960938 C 11.706621 2.9960938 12.194797 3.2147808 12.511719 3.5820312 C 12.828641 3.9492817 13.007812 4.5440905 13.007812 5.3945312 L 13.007812 10.898438 C 13.007812 12.192643 12.201176 13.005859 10.855469 13.005859 L 9 13.005859 L 9 2.9960938 z M 4.0078125 5.0039062 A 1 1 0 0 0 4.0078125 7.0039062 A 1 1 0 0 0 4.0078125 5.0039062 z M 10.996094 8.0039062 A 1 1 0 0 0 10.996094 10.003906 A 1 1 0 0 0 10.996094 8.0039062 z"/></svg>